<svg width="512" height="512" fill="none" xmlns="http://www.w3.org/2000/svg"><g clip-path="url(#a)"><path d="M435.757 233.373c0 10.503-8.329 19.016-18.599 19.016H83.362c-10.27 0-18.596-8.513-18.596-19.016V44.774c0-10.497 8.326-19.01 18.596-19.01h333.796c10.27 0 18.599 8.513 18.599 19.01v188.599Z" fill="#2E292A"/><path d="M88.76 244.359c-8.272 0-15.016-6.827-15.016-15.21V49.494c0-8.383 6.744-15.212 15.016-15.212h322.998c8.28 0 15.016 6.83 15.016 15.212V229.15c0 8.383-6.736 15.21-15.016 15.21H88.76Z" fill="#57A8C9"/><path d="M124.291 244.359h-35.53c-8.273 0-15.017-6.827-15.017-15.21V49.494c0-8.383 6.744-15.212 15.016-15.212h224.863L124.291 244.359" fill="#65B2CE"/><path d="M435.757 456.051c0 10.5-8.329 19.02-18.599 19.02H83.364c-10.272 0-18.598-8.52-18.598-19.02V267.457c0-10.505 8.326-19.018 18.598-19.018h333.794c10.27 0 18.599 8.513 18.599 19.018v188.594" fill="#EBEEEB"/><path d="M417.158 467.852H83.364c-10.272 0-18.598-8.508-18.598-19.013v7.212c0 10.5 8.326 19.02 18.598 19.02h333.794c10.27 0 18.599-8.52 18.599-19.02v-7.212c0 10.505-8.329 19.013-18.599 19.013" fill="#CACCCA"/><path d="M292.513 459.883c0 1.294-1.291 2.343-2.887 2.343h-85.218c-1.595 0-2.891-1.049-2.891-2.343v-60.182c0-1.294 1.296-2.34 2.891-2.34h85.218c1.596 0 2.887 1.046 2.887 2.34v60.182Z" fill="#DFE1DE"/><path d="M289.626 397.361h-85.218c-1.595 0-2.891 1.046-2.891 2.34v60.182c0 .809.512 1.524 1.284 1.943l-.054-61.836c0-.735.598-1.502 1.519-1.502h85.495c.97 0 1.532.644 1.532 1.448l-.057 61.89c.772-.419 1.277-1.134 1.277-1.943v-60.182c0-1.294-1.291-2.34-2.887-2.34Z" fill="#CACCCA"/><path d="M107.303 243.182v19.952h2.827v-1.309h281.72v1.309h2.804v-19.952H107.303Z" fill="#2E292A"/><path d="M107.303 243.182v2.037h287.351v-2.037H107.303Z" fill="#57595D"/><path d="M113.348 277.78c-9.03 0-9.29 1.529-9.29 10.716v86.335c0 9.224.426 12.14 9.29 12.14h276.527c3.477 0 5.499-.468 6.54-1.519 1.392-1.402 1.365-4.169 1.328-8.359-.002-.713-.007-1.465-.007-2.262v-86.335c0-9.187-.26-10.716-9.292-10.716H113.348Zm276.527 110.619H113.348c-10.28 0-10.716-4.155-10.716-13.568v-86.335c0-9.427.458-12.144 10.716-12.144h275.096c10.262 0 10.721 2.717 10.721 12.144v86.335c0 .792-.001 1.539.009 2.247.037 4.551.064 7.555-1.744 9.381-1.355 1.362-3.615 1.94-7.555 1.94" fill="#CACCCA"/><path d="M125.046 288.942a1.637 1.637 0 0 1-1.013 1.519 1.653 1.653 0 0 1-.629.125h-14.459a1.653 1.653 0 0 1-1.162-.482 1.624 1.624 0 0 1-.48-1.162v-5.626a1.633 1.633 0 0 1 .48-1.163 1.635 1.635 0 0 1 1.162-.482h14.459c.907 0 1.642.736 1.642 1.645v5.626Zm0 17.138a1.633 1.633 0 0 1-.48 1.163 1.645 1.645 0 0 1-1.162.481h-14.459a1.634 1.634 0 0 1-1.162-.481 1.639 1.639 0 0 1-.48-1.163v-10.836c0-.909.732-1.639 1.642-1.639h14.459c.907 0 1.642.73 1.642 1.639v10.836Zm19.479 0a1.65 1.65 0 0 1-1.012 1.518 1.63 1.63 0 0 1-.628.126H128.42a1.634 1.634 0 0 1-1.16-.482 1.648 1.648 0 0 1-.479-1.162v-10.836c0-.909.735-1.639 1.639-1.639h14.465a1.647 1.647 0 0 1 1.16.479c.152.153.273.333.356.532.082.2.124.413.124.628v10.836Zm8.338 17.81a1.643 1.643 0 0 1-1.641 1.642h-14.46a1.645 1.645 0 0 1-1.64-1.642v-10.834a1.64 1.64 0 0 1 1.64-1.641h14.46a1.643 1.643 0 0 1 1.641 1.641v10.834Zm20.148 0a1.65 1.65 0 0 1-.48 1.161 1.633 1.633 0 0 1-.532.355 1.63 1.63 0 0 1-.628.126h-14.462a1.657 1.657 0 0 1-1.162-.481 1.633 1.633 0 0 1-.48-1.161v-10.834c0-.909.733-1.641 1.642-1.641h14.462c.907 0 1.64.732 1.64 1.641v10.834Zm20.15 0a1.644 1.644 0 0 1-1.64 1.642h-14.46a1.638 1.638 0 0 1-1.162-.481 1.639 1.639 0 0 1-.482-1.161v-10.834c0-.909.738-1.641 1.644-1.641h14.46a1.64 1.64 0 0 1 1.64 1.641v10.834Zm20.152 0a1.636 1.636 0 0 1-.484 1.162 1.643 1.643 0 0 1-1.165.48h-14.455a1.638 1.638 0 0 1-1.64-1.642v-10.834c0-.909.731-1.641 1.64-1.641h14.455a1.64 1.64 0 0 1 1.649 1.641v10.834Zm20.145 0a1.644 1.644 0 0 1-1.64 1.642h-14.462a1.643 1.643 0 0 1-1.642-1.642v-10.834c0-.909.738-1.641 1.642-1.641h14.462a1.64 1.64 0 0 1 1.64 1.641v10.834Zm20.147 0a1.643 1.643 0 0 1-1.642 1.642h-14.457a1.645 1.645 0 0 1-1.64-1.642v-10.834a1.64 1.64 0 0 1 1.64-1.641h14.457a1.64 1.64 0 0 1 1.642 1.641v10.834Zm20.15 0a1.65 1.65 0 0 1-.48 1.161 1.635 1.635 0 0 1-1.162.481h-14.457a1.63 1.63 0 0 1-.628-.126 1.633 1.633 0 0 1-1.012-1.516v-10.834c0-.909.733-1.641 1.64-1.641h14.457c.909 0 1.642.732 1.642 1.641v10.834Zm20.145 0c.001.215-.041.428-.123.627a1.626 1.626 0 0 1-1.512 1.015h-14.46a1.641 1.641 0 0 1-1.644-1.642v-10.834c0-.909.738-1.641 1.644-1.641h14.46c.907 0 1.635.732 1.635 1.641v10.834Zm20.152 0a1.643 1.643 0 0 1-1.642 1.642h-14.457a1.64 1.64 0 0 1-1.642-1.642v-10.834a1.64 1.64 0 0 1 1.642-1.641h14.457a1.64 1.64 0 0 1 1.642 1.641v10.834Zm20.15 0a1.644 1.644 0 0 1-1.639 1.642H318.1a1.638 1.638 0 0 1-1.162-.481 1.639 1.639 0 0 1-.482-1.161v-10.834c0-.909.737-1.641 1.644-1.641h14.463a1.638 1.638 0 0 1 1.639 1.641v10.834Zm20.147 0a1.632 1.632 0 0 1-.479 1.161 1.634 1.634 0 0 1-1.16.481h-14.463a1.639 1.639 0 0 1-1.641-1.642v-10.834a1.64 1.64 0 0 1 1.641-1.641h14.463c.907 0 1.639.732 1.639 1.641v10.834Zm-196.744 17.498a1.653 1.653 0 0 1-.482 1.162 1.656 1.656 0 0 1-.533.356c-.2.082-.413.124-.629.124h-14.458a1.645 1.645 0 0 1-1.642-1.642V330.55c0-.902.738-1.639 1.642-1.639h14.458a1.627 1.627 0 0 1 1.161.479 1.639 1.639 0 0 1 .483 1.16v10.838Zm20.147 0a1.627 1.627 0 0 1-.477 1.161 1.652 1.652 0 0 1-1.16.481h-14.459a1.645 1.645 0 0 1-1.64-1.642V330.55a1.64 1.64 0 0 1 1.64-1.639h14.459a1.638 1.638 0 0 1 1.513 1.012c.083.199.125.412.124.627v10.838Zm20.155 0a1.653 1.653 0 0 1-.482 1.162 1.656 1.656 0 0 1-.533.356c-.2.082-.413.124-.629.124h-14.46a1.64 1.64 0 0 1-1.642-1.642V330.55c0-.902.735-1.639 1.642-1.639h14.46a1.627 1.627 0 0 1 1.161.479 1.639 1.639 0 0 1 .483 1.16v10.838Zm20.145 0a1.644 1.644 0 0 1-1.639 1.642h-14.46a1.65 1.65 0 0 1-1.645-1.642V330.55c0-.902.74-1.639 1.645-1.639h14.46a1.639 1.639 0 0 1 1.639 1.639v10.838Zm20.155 0a1.652 1.652 0 0 1-1.645 1.642H222.1a1.645 1.645 0 0 1-1.642-1.642V330.55c0-.902.738-1.639 1.642-1.639h14.462a1.649 1.649 0 0 1 1.645 1.639v10.838Zm20.147 0a1.653 1.653 0 0 1-.482 1.162 1.656 1.656 0 0 1-.533.356c-.2.082-.413.124-.629.124h-14.463a1.645 1.645 0 0 1-1.641-1.642V330.55c0-.902.737-1.639 1.641-1.639h14.463a1.627 1.627 0 0 1 1.161.479 1.639 1.639 0 0 1 .483 1.16v10.838Zm20.145 0a1.644 1.644 0 0 1-1.639 1.642h-14.463a1.64 1.64 0 0 1-1.158-.483 1.636 1.636 0 0 1-.481-1.159V330.55a1.638 1.638 0 0 1 1.639-1.639h14.463a1.639 1.639 0 0 1 1.639 1.639v10.838Zm20.152 0a1.647 1.647 0 0 1-1.647 1.642h-14.457a1.645 1.645 0 0 1-1.642-1.642V330.55c0-.902.738-1.639 1.642-1.639h14.457a1.645 1.645 0 0 1 1.647 1.639v10.838Zm20.145 0a1.64 1.64 0 0 1-1.642 1.642h-14.457a1.642 1.642 0 0 1-1.64-1.642V330.55a1.641 1.641 0 0 1 1.64-1.639h14.457a1.64 1.64 0 0 1 1.642 1.639v10.838Zm20.15 0a1.653 1.653 0 0 1-.482 1.162 1.667 1.667 0 0 1-.533.356 1.66 1.66 0 0 1-.629.124h-14.455a1.64 1.64 0 0 1-1.642-1.642V330.55c0-.902.735-1.639 1.642-1.639h14.455a1.637 1.637 0 0 1 1.644 1.639v10.838Zm20.152 0a1.634 1.634 0 0 1-.482 1.162 1.656 1.656 0 0 1-.533.356c-.2.082-.413.124-.629.124h-14.458a1.647 1.647 0 0 1-1.644-1.642V330.55c0-.902.738-1.639 1.644-1.639h14.458a1.641 1.641 0 0 1 1.644 1.639v10.838Zm15.403-17.498a1.643 1.643 0 0 1-1.641 1.642h-14.458a1.638 1.638 0 0 1-1.162-.481 1.639 1.639 0 0 1-.482-1.161v-10.834a1.64 1.64 0 0 1 1.644-1.641h14.458a1.643 1.643 0 0 1 1.641 1.641v10.834Zm20.153 0a1.647 1.647 0 0 1-1.647 1.642h-14.46a1.634 1.634 0 0 1-1.16-.481 1.648 1.648 0 0 1-.479-1.161v-10.834c0-.909.732-1.641 1.639-1.641h14.46a1.646 1.646 0 0 1 1.647 1.641v10.834Zm-230.122-17.81a1.633 1.633 0 0 1-.48 1.163 1.645 1.645 0 0 1-1.161.481h-14.465a1.642 1.642 0 0 1-1.637-1.644v-10.836c0-.909.735-1.639 1.637-1.639h14.465c.906 0 1.641.73 1.641 1.639v10.836Zm20.001 0a1.63 1.63 0 0 1-.475 1.161 1.63 1.63 0 0 1-1.157.483h-14.465a1.642 1.642 0 0 1-1.637-1.644v-10.836c0-.909.733-1.639 1.637-1.639h14.465a1.623 1.623 0 0 1 1.156.481 1.63 1.63 0 0 1 .476 1.158v10.836Zm20.012 0a1.633 1.633 0 0 1-.48 1.163 1.645 1.645 0 0 1-1.162.481h-14.46a1.645 1.645 0 0 1-1.644-1.644v-10.836a1.653 1.653 0 0 1 .483-1.16 1.648 1.648 0 0 1 1.161-.479h14.46c.907 0 1.642.73 1.642 1.639v10.836Zm20.008 0a1.643 1.643 0 0 1-1.644 1.644h-14.458a1.633 1.633 0 0 1-1.163-.481 1.643 1.643 0 0 1-.481-1.163v-10.836c0-.909.735-1.639 1.644-1.639h14.458a1.64 1.64 0 0 1 1.644 1.639v10.836Zm20.008 0a1.648 1.648 0 0 1-1.645 1.644h-14.462a1.638 1.638 0 0 1-1.637-1.644v-10.836c0-.909.73-1.639 1.637-1.639h14.462a1.652 1.652 0 0 1 1.162.479 1.639 1.639 0 0 1 .483 1.16v10.836Zm20.002 0a1.648 1.648 0 0 1-1.011 1.518 1.63 1.63 0 0 1-.628.126h-14.462a1.638 1.638 0 0 1-1.637-1.644v-10.836c0-.909.73-1.639 1.637-1.639h14.462a1.65 1.65 0 0 1 1.16.479 1.644 1.644 0 0 1 .479 1.16v10.836Zm20.008 0a1.652 1.652 0 0 1-.48 1.163 1.656 1.656 0 0 1-1.162.481h-14.457a1.642 1.642 0 0 1-1.644-1.644v-10.836c0-.909.735-1.639 1.644-1.639h14.457c.907 0 1.642.73 1.642 1.639v10.836Zm20.008 0a1.652 1.652 0 0 1-.48 1.163 1.638 1.638 0 0 1-1.162.481h-14.462a1.639 1.639 0 0 1-1.64-1.644v-10.836c0-.909.735-1.639 1.64-1.639h14.462a1.644 1.644 0 0 1 1.642 1.639v10.836Zm20.003 0a1.634 1.634 0 0 1-.481 1.163 1.652 1.652 0 0 1-1.161.481h-14.46a1.642 1.642 0 0 1-1.637-1.644v-10.836c0-.909.733-1.639 1.637-1.639h14.46c.906 0 1.642.73 1.642 1.639v10.836Zm20.007 0a1.656 1.656 0 0 1-.479 1.162 1.636 1.636 0 0 1-1.16.482h-14.46a1.646 1.646 0 0 1-1.644-1.644v-10.836a1.634 1.634 0 0 1 .482-1.16 1.648 1.648 0 0 1 1.162-.479h14.46a1.65 1.65 0 0 1 1.16.479 1.644 1.644 0 0 1 .479 1.16v10.836Zm20.01 0a1.643 1.643 0 0 1-1.641 1.644h-14.463a1.646 1.646 0 0 1-1.644-1.644v-10.836a1.634 1.634 0 0 1 .483-1.16 1.627 1.627 0 0 1 1.161-.479h14.463a1.644 1.644 0 0 1 1.641 1.639v10.836Zm30.055 0a1.648 1.648 0 0 1-1.647 1.644h-23.223a1.649 1.649 0 0 1-1.649-1.644v-10.836c0-.909.743-1.639 1.649-1.639h23.223a1.632 1.632 0 0 1 1.163.478 1.635 1.635 0 0 1 .484 1.161v10.836Zm0 35.308a1.649 1.649 0 0 1-1.647 1.642H363.94a1.629 1.629 0 0 1-1.158-.482 1.633 1.633 0 0 1-.479-1.16V330.55c0-.902.73-1.639 1.637-1.639h29.067a1.646 1.646 0 0 1 1.647 1.639v10.838Zm0 17.214a1.649 1.649 0 0 1-1.647 1.642h-37.839a1.64 1.64 0 0 1-1.637-1.642v-10.838a1.64 1.64 0 0 1 1.637-1.644h37.839a1.652 1.652 0 0 1 1.647 1.644v10.838ZM132.866 323.89a1.642 1.642 0 0 1-1.645 1.642h-22.276a1.653 1.653 0 0 1-1.162-.481 1.632 1.632 0 0 1-.48-1.161v-10.834c0-.909.732-1.641 1.642-1.641h22.276a1.628 1.628 0 0 1 1.519 1.013c.083.199.126.413.126.628v10.834Zm4.43 17.498a1.653 1.653 0 0 1-.482 1.162 1.667 1.667 0 0 1-.533.356 1.66 1.66 0 0 1-.629.124h-26.707a1.64 1.64 0 0 1-1.642-1.642V330.55a1.64 1.64 0 0 1 1.642-1.639h26.707a1.637 1.637 0 0 1 1.644 1.639v10.838Zm29.079 17.214a1.647 1.647 0 0 1-.478 1.16 1.62 1.62 0 0 1-.532.356 1.625 1.625 0 0 1-.627.126h-14.462a1.647 1.647 0 0 1-1.642-1.642v-10.838c0-.907.738-1.644 1.642-1.644h14.462a1.642 1.642 0 0 1 1.637 1.644v10.838Zm142.301 22.027a1.648 1.648 0 0 1-1.644 1.649h-14.46a1.644 1.644 0 0 1-1.517-1.019 1.64 1.64 0 0 1-.123-.63V366c0-.904.733-1.642 1.64-1.642h14.46a1.65 1.65 0 0 1 1.644 1.642v14.629Zm-153.34 0a1.64 1.64 0 0 1-1.637 1.649h-19.41a1.646 1.646 0 0 1-1.644-1.649V366c0-.904.738-1.642 1.644-1.642h19.41a1.644 1.644 0 0 1 1.637 1.642v14.629Zm178.322 0a1.646 1.646 0 0 1-1.012 1.524c-.2.083-.414.125-.63.125h-19.41a1.644 1.644 0 0 1-1.641-1.649V366c0-.904.737-1.642 1.641-1.642h19.41a1.643 1.643 0 0 1 1.642 1.642v14.629Zm-45.571 0a1.639 1.639 0 0 1-1.636 1.649H160.835a1.643 1.643 0 0 1-1.642-1.649V366c0-.904.735-1.642 1.642-1.642h125.616a1.64 1.64 0 0 1 1.636 1.642v14.629Zm-158.412 0a1.642 1.642 0 0 1-1.644 1.649h-19.086a1.635 1.635 0 0 1-1.519-1.018 1.646 1.646 0 0 1-.123-.631V366c0-.904.732-1.642 1.642-1.642h19.086a1.638 1.638 0 0 1 1.162.48 1.654 1.654 0 0 1 .482 1.162v14.629Zm56.852-22.027a1.634 1.634 0 0 1-.481 1.162 1.644 1.644 0 0 1-1.163.48h-14.457a1.645 1.645 0 0 1-1.642-1.642v-10.838c0-.907.737-1.644 1.642-1.644h14.457c.436 0 .854.173 1.163.481.308.309.481.727.481 1.163v10.838Zm20.148 0a1.642 1.642 0 0 1-1.64 1.642h-14.462a1.641 1.641 0 0 1-1.639-1.642v-10.838c0-.907.732-1.644 1.639-1.644h14.462a1.63 1.63 0 0 1 1.161.483 1.642 1.642 0 0 1 .479 1.161v10.838Zm20.149 0a1.634 1.634 0 0 1-.481 1.162 1.644 1.644 0 0 1-1.163.48h-14.457a1.65 1.65 0 0 1-1.645-1.642v-10.838c0-.907.738-1.644 1.645-1.644h14.457a1.645 1.645 0 0 1 1.644 1.644v10.838Zm20.145 0a1.641 1.641 0 0 1-1.639 1.642h-14.46a1.641 1.641 0 0 1-1.639-1.642v-10.838c0-.907.735-1.644 1.639-1.644h14.46a1.63 1.63 0 0 1 1.16.483 1.627 1.627 0 0 1 .479 1.161v10.838Zm20.155 0a1.647 1.647 0 0 1-1.644 1.642h-14.46a1.641 1.641 0 0 1-1.639-1.642v-10.838c0-.907.732-1.644 1.639-1.644h14.46a1.648 1.648 0 0 1 1.644 1.644v10.838Zm20.145 0a1.642 1.642 0 0 1-1.639 1.642h-14.46a1.646 1.646 0 0 1-1.64-1.642v-10.838c0-.907.738-1.644 1.64-1.644h14.46a1.634 1.634 0 0 1 1.16.483 1.627 1.627 0 0 1 .479 1.161v10.838Zm20.15 0a1.653 1.653 0 0 1-.482 1.162 1.65 1.65 0 0 1-1.162.48h-14.458a1.641 1.641 0 0 1-1.639-1.642v-10.838c0-.907.735-1.644 1.639-1.644h14.458a1.643 1.643 0 0 1 1.644 1.644v10.838Zm20.147 0a1.647 1.647 0 0 1-.478 1.16 1.62 1.62 0 0 1-.532.356 1.621 1.621 0 0 1-.627.126h-14.462a1.641 1.641 0 0 1-1.639-1.642v-10.838c0-.907.735-1.644 1.639-1.644h14.462a1.642 1.642 0 0 1 1.637 1.644v10.838Zm20.147 0a1.627 1.627 0 0 1-1.011 1.517 1.629 1.629 0 0 1-.628.125h-14.457a1.65 1.65 0 0 1-1.161-.481 1.65 1.65 0 0 1-.481-1.161v-10.838c0-.907.737-1.644 1.642-1.644h14.457a1.638 1.638 0 0 1 1.639 1.644v10.838Zm7.129 22.027a1.644 1.644 0 0 1-1.016 1.524c-.2.083-.414.125-.631.125h-14.46a1.635 1.635 0 0 1-1.162-.484 1.646 1.646 0 0 1-.477-1.165v-6.278a1.636 1.636 0 0 1 1.01-1.52c.2-.083.413-.126.629-.127h14.46a1.65 1.65 0 0 1 1.647 1.647v6.278Zm20.365-9.566a1.643 1.643 0 0 1-1.642 1.641h-14.46a1.638 1.638 0 0 1-1.641-1.641v-6.286a1.64 1.64 0 0 1 1.641-1.641h14.46a1.644 1.644 0 0 1 1.642 1.641v6.286Z" fill="#2E292A"/><path d="M375.207 380.629a1.646 1.646 0 0 1-1.012 1.524 1.635 1.635 0 0 1-.63.125h-14.46a1.643 1.643 0 0 1-1.641-1.649v-6.278c0-.909.735-1.647 1.641-1.647h14.46c.907 0 1.642.738 1.642 1.647v6.278Zm19.447 0a1.651 1.651 0 0 1-1.647 1.649h-14.46a1.635 1.635 0 0 1-1.162-.484 1.646 1.646 0 0 1-.477-1.165v-6.278a1.636 1.636 0 0 1 1.01-1.52c.2-.083.413-.126.629-.127h14.46a1.65 1.65 0 0 1 1.647 1.647v6.278Zm-248.49-22.027a1.642 1.642 0 0 1-1.639 1.642h-35.58a1.64 1.64 0 0 1-1.642-1.642v-10.838c0-.907.732-1.644 1.642-1.644h35.58a1.634 1.634 0 0 1 1.16.483 1.627 1.627 0 0 1 .479 1.161v10.838Zm.537-69.66a1.638 1.638 0 0 1-.48 1.162 1.654 1.654 0 0 1-1.162.482h-14.458a1.645 1.645 0 0 1-1.644-1.644v-5.626c0-.909.738-1.645 1.644-1.645h14.458c.906 0 1.642.736 1.642 1.645v5.626Zm20.556 0a1.64 1.64 0 0 1-1.642 1.644h-14.46a1.638 1.638 0 0 1-1.636-1.644v-5.626c0-.909.73-1.645 1.636-1.645h14.46c.907 0 1.642.736 1.642 1.645v5.626Zm20.557 0a1.65 1.65 0 0 1-.479 1.161 1.643 1.643 0 0 1-1.161.483h-14.462a1.644 1.644 0 0 1-1.644-1.644v-5.626c0-.909.737-1.645 1.644-1.645h14.462a1.649 1.649 0 0 1 1.516 1.016c.082.199.124.413.124.629v5.626Zm20.554 0c0 .216-.042.429-.124.629a1.656 1.656 0 0 1-.889.89 1.653 1.653 0 0 1-.629.125h-14.46a1.642 1.642 0 0 1-1.642-1.644v-5.626c0-.909.735-1.645 1.642-1.645h14.46c.904 0 1.642.736 1.642 1.645v5.626Zm20.554 0a1.65 1.65 0 0 1-.479 1.161 1.639 1.639 0 0 1-1.16.483h-14.458a1.654 1.654 0 0 1-1.517-1.015 1.638 1.638 0 0 1-.125-.629v-5.626a1.641 1.641 0 0 1 1.642-1.645h14.458c.906 0 1.639.736 1.639 1.645v5.626Zm20.559 0a1.65 1.65 0 0 1-.479 1.161 1.639 1.639 0 0 1-1.16.483h-14.468a1.64 1.64 0 0 1-1.637-1.644v-5.626c0-.909.736-1.645 1.637-1.645h14.468a1.653 1.653 0 0 1 1.16.483 1.648 1.648 0 0 1 .479 1.162v5.626Zm20.554 0a1.64 1.64 0 0 1-1.642 1.644h-14.457a1.644 1.644 0 0 1-1.644-1.644v-5.626c0-.909.737-1.645 1.644-1.645h14.457c.905 0 1.642.736 1.642 1.645v5.626Zm20.554 0a1.632 1.632 0 0 1-.479 1.161 1.639 1.639 0 0 1-1.16.483h-14.46a1.653 1.653 0 0 1-1.162-.482 1.656 1.656 0 0 1-.356-.533 1.656 1.656 0 0 1-.124-.629v-5.626a1.652 1.652 0 0 1 .48-1.163 1.635 1.635 0 0 1 1.162-.482h14.46a1.64 1.64 0 0 1 1.639 1.645v5.626Zm20.557 0c0 .216-.042.429-.124.629a1.656 1.656 0 0 1-.889.89 1.653 1.653 0 0 1-.629.125h-14.46a1.63 1.63 0 0 1-1.16-.483 1.627 1.627 0 0 1-.479-1.161v-5.626c0-.909.735-1.645 1.639-1.645h14.46c.909 0 1.642.736 1.642 1.645v5.626Zm20.556 0a1.633 1.633 0 0 1-.48 1.163 1.658 1.658 0 0 1-.534.357 1.66 1.66 0 0 1-.63.124h-14.455a1.638 1.638 0 0 1-1.639-1.644v-5.626c0-.909.73-1.645 1.639-1.645h14.455a1.643 1.643 0 0 1 1.644 1.645v5.626Zm20.554 0a1.63 1.63 0 0 1-.477 1.161 1.639 1.639 0 0 1-1.159.483h-14.46a1.653 1.653 0 0 1-1.162-.482 1.64 1.64 0 0 1-.48-1.162v-5.626a1.652 1.652 0 0 1 .48-1.163 1.635 1.635 0 0 1 1.162-.482h14.46c.906 0 1.636.736 1.636 1.645v5.626Zm20.56 0a1.638 1.638 0 0 1-.48 1.162 1.654 1.654 0 0 1-1.162.482h-14.46a1.64 1.64 0 0 1-1.64-1.644v-5.626a1.64 1.64 0 0 1 1.64-1.645h14.46c.906 0 1.642.736 1.642 1.645v5.626Zm21.838 0a1.652 1.652 0 0 1-1.647 1.644h-14.46a1.63 1.63 0 0 1-1.16-.483 1.627 1.627 0 0 1-.479-1.161v-5.626a1.633 1.633 0 0 1 .479-1.162 1.639 1.639 0 0 1 1.16-.483h14.46a1.65 1.65 0 0 1 1.647 1.645v5.626Z" fill="#2E292A"/><path d="M145.105 318.545c0-.671-.313-1.22-.874-1.22-.564 0-.887.549-.887 1.238 0 .691.33 1.22.887 1.22.556 0 .874-.525.874-1.238Zm.655 2.461c-.49-.144-.972-.317-1.441-.518l-.25-.046c-.831-.059-1.595-.662-1.595-1.857 0-1.096.691-1.914 1.781-1.914 1.11 0 1.725.845 1.725 1.843 0 .825-.389 1.413-.862 1.627v.022c.288.082.58.151.874.206l-.232.637m17.961-.628-.862-3.644h.877l.279 1.5c.079.436.157.909.216 1.277h.01c.061-.395.149-.836.24-1.289l.309-1.488h.872l.296 1.539c.081.427.14.816.194 1.221h.01c.056-.405.137-.831.213-1.272l.297-1.488h.835l-.936 3.644h-.897l-.309-1.565a14.994 14.994 0 0 1-.171-1.123h-.012c-.057.376-.126.751-.206 1.123l-.348 1.565h-.907m21.115-1.539h-1.345v.865h1.497v.674h-2.318v-3.644h2.245v.677h-1.424v.759h1.345v.669m19.413-.49h.321c.414 0 .659-.203.659-.524 0-.326-.23-.5-.61-.5l-.37.025v.999Zm-59.303 1.093a6.763 6.763 0 0 1 1.098-.078c.539 0 .916.081 1.174.284a.938.938 0 0 1 .343.772.964.964 0 0 1-.645.892v.015c.258.103.395.34.488.673.113.417.22.895.291 1.034h-.842c-.057-.105-.148-.399-.253-.845-.1-.458-.257-.583-.6-.588h-.24v1.433h-.814v-3.592Zm78.71-2.017h-.983v-.691h2.804v.691h-1.003v2.953h-.818v-2.953Zm20.368 2.953v-1.49l-1.154-2.154h.948l.365.875c.115.265.196.461.284.699h.01c.084-.228.167-.439.275-.699l.365-.875h.929l-1.199 2.125v1.519h-.823m20.748-3.644v2.096c0 .632.237.95.654.95.434 0 .676-.301.676-.95v-2.096h.821v2.044c0 1.125-.571 1.664-1.522 1.664-.916 0-1.453-.515-1.453-1.674v-2.034h.824m19.623 0v3.644h-.824v-3.644h.824Zm21.245 1.829c0 .72.331 1.22.882 1.22.556 0 .877-.529.877-1.238 0-.656-.309-1.22-.877-1.22-.561 0-.882.527-.882 1.238Zm-158.06.835c0 1.203-.723 1.924-1.793 1.924-1.076 0-1.716-.821-1.716-1.863 0-1.09.704-1.908 1.774-1.908 1.123 0 1.735.835 1.735 1.847Zm177.166-.958.277.02c.438 0 .708-.221.708-.591 0-.333-.231-.534-.652-.534l-.333.027v1.078Zm-177.982-.696a6.334 6.334 0 0 1 1.115-.078c.505 0 .87.095 1.113.289a1.063 1.063 0 0 1 .389.843 1.142 1.142 0 0 1-.333.87c-.282.259-.701.384-1.186.384l-.282-.019v1.303h-.816v-3.592m-35.376 6.038-.405.068c-.554 0-.833-.343-.833-.796 0-.544.385-.84.868-.84l.389.071-.076.284-.299-.059c-.284 0-.507.172-.507.522 0 .321.194.522.507.522l.302-.051.054.279m1.029-.632-.096-.339-.081-.306h-.005l-.073.306-.093.339h.348Zm33.945-5.136-.112.406h-.37l.482-1.585h.473l.495 1.585h-.392l-.122-.406h-.454Zm-32.818 4.967.12.009.309-.259-.282-.231-.147.01v.471Zm32.461-5.688.487-.034c.223 0 .38.044.488.127l.164.368-.142.38-.515.164-.125-.012v.573h-.357v-1.566m-31.437 6.161.397.1.257-.171-.271-.219c-.263-.095-.439-.245-.439-.47 0-.275.228-.48.6-.48l.409.085-.083.282-.326-.076-.235.159.294.219c.282.105.412.252.412.475 0 .267-.206.49-.64.49l-.451-.098.076-.296m1.733-1.213h.357v1.284h.633v.301h-.99v-1.585Zm1.418.791c0 .311.145.534.383.534.245 0 .384-.232.384-.541 0-.284-.132-.527-.384-.527-.24 0-.383.228-.383.534Zm29.435-5.756c0 .524-.319.836-.787.836-.463 0-.742-.353-.742-.809 0-.475.304-.831.772-.831.487 0 .757.365.757.804m-26.891 6.506-.407.068c-.546 0-.833-.343-.833-.796 0-.544.39-.84.868-.84l.389.071-.073.284-.302-.059c-.282 0-.505.172-.505.522 0 .321.192.522.505.522l.307-.051.051.279Zm.235-1.541h.353v.698h.005l.11-.171.36-.527h.442l-.525.674.552.911h-.419l-.39-.686-.135.169v.517h-.353v-1.585m224.361 1.117v-3.134h.803v.331h-.374v2.47h.374v.333h-.803Zm-.15-7.76c.265-.01.292-.15.294-.27l-.019-.304-.02-.311c0-.373.23-.532.598-.532h.137v.338h-.071l-.242.275.022.225.019.27c.005.294-.117.409-.34.453v.012c.223.042.345.152.34.449l-.019.277-.022.218.242.286h.071v.329h-.142c-.348 0-.593-.14-.593-.529l.02-.317.019-.303c0-.113-.029-.258-.294-.265v-.301m21.277 4.626v3.134h-.801v-.333h.372v-2.47h-.372v-.331h.801Zm.147-4.325c-.267.007-.291.152-.296.265l.024.303.02.317c0 .389-.243.529-.596.529h-.139v-.329h.073l.235-.286-.017-.218-.024-.277c0-.297.12-.407.34-.449v-.012c-.22-.044-.34-.159-.34-.453l.024-.27.017-.225-.235-.275h-.073v-.338h.134c.368 0 .601.159.601.532l-.02.311-.024.304c0 .12.029.26.296.27v.301m20.481 7.655-.792-2.847h.395l.791 2.847h-.394Zm-.074-9.138v3.924h-.419v-3.924h.419Zm-2.107-9.466.13.008c.323.005.536-.177.536-.557 0-.328-.193-.502-.499-.502l-.167.015v1.036Zm-237.634 11.035.485-.04c.299 0 .5.062.649.177.164.118.27.316.27.593a.802.802 0 0 1-.262.644c-.216.15-.476.223-.738.206l-.404-.024v-1.556m239.857-11.432h-.579v.378h.65v.289h-1.01v-1.585h.978v.294h-.618v.328h.579v.296m.316-.918h.36v1.286h.627v.299h-.987v-1.585m2.144.918h-.583v.378h.651v.289h-1.009v-1.585h.977v.294h-.619v.328h.583v.296Zm.63-.615h-.429v-.303h1.225v.303h-.439v1.282h-.357v-1.282Zm1.926.615h-.584v.378h.652v.289h-1.009v-1.585h.977v.294h-.62v.328h.584v.296Zm-256.491-5.084h-.01l-.674.318-.134-.615.938-.436h.674v3.519h-.794v-2.786m19.449 2.786v-.5l.446-.404c.774-.689 1.149-1.088 1.154-1.502 0-.28-.166-.515-.573-.515a1.277 1.277 0 0 0-.75.294l-.235-.588a1.937 1.937 0 0 1 1.149-.36c.799 0 1.233.465 1.233 1.098 0 .59-.424 1.066-.939 1.519l-.323.272v.007h1.333v.679h-2.495m19.672-.806c.251.134.529.208.814.216.431 0 .647-.204.647-.466 0-.348-.346-.507-.709-.507h-.338v-.588h.329c.272 0 .62-.111.62-.405 0-.213-.172-.37-.52-.37a1.559 1.559 0 0 0-.728.211l-.169-.596a2.187 2.187 0 0 1 1.088-.264c.745 0 1.159.394 1.159.875 0 .372-.208.671-.642.813v.015c.422.076.762.392.762.86 0 .617-.546 1.073-1.438 1.073a2.225 2.225 0 0 1-1.044-.242l.169-.625m22.076-.647v-.779c0-.214.012-.429.022-.657h-.017c-.11.228-.208.431-.328.657l-.466.767-.007.012h.796Zm-49.579 16.636v-.838h-1.556v-.539l1.323-2.142h1.009v2.066h.417v.615h-.417v.838h-.776m69.988-18.025h-1.367l-.076.541.233-.01c.327-.01.65.079.926.255.26.179.422.468.422.877 0 .659-.564 1.24-1.51 1.24a2.176 2.176 0 0 1-.975-.206l.152-.612c.248.109.515.168.787.171.34 0 .705-.161.705-.534 0-.362-.291-.588-.992-.588l-.471.037.228-1.848h1.938v.677m19.677 1.668c0-.318-.174-.6-.524-.6a.513.513 0 0 0-.48.309l-.039.213c.019.367.193.705.578.705.284 0 .465-.262.465-.627Zm-89.214 14.6-.324.007c-.725.061-1.049.431-1.142.841h.015c.171-.174.426-.275.747-.275.591 0 1.086.419 1.086 1.147a1.258 1.258 0 0 1-1.292 1.272c-.941 0-1.401-.701-1.401-1.542 0-.656.245-1.205.627-1.563.346-.321.801-.49 1.35-.514l.334-.008v.635m109.859-16.945v.522l-1.45 2.997h-.87l1.448-2.828v-.014h-1.613v-.677h2.485m18.261.904c0 .238.208.392.487.478l.363-.443c0-.221-.123-.439-.429-.439-.279 0-.421.191-.421.404Zm-127.204 17.707c0-.304-.233-.49-.551-.576-.27.071-.424.272-.424.525a.481.481 0 0 0 .304.456.5.5 0 0 0 .191.034c.291 0 .48-.191.48-.439Zm-1.186-.865c-.341-.179-.51-.463-.51-.769 0-.598.534-.993 1.238-.993.823 0 1.164.476 1.164.904a.848.848 0 0 1-.515.77v.015c.346.134.647.426.647.874 0 .64-.532 1.074-1.35 1.074-.892 0-1.301-.51-1.301-.983 0-.419.242-.711.627-.88v-.012Zm148.4-16.584c0 .301.166.561.497.561.228 0 .383-.105.458-.223l.037-.213c.008-.378-.132-.745-.517-.745-.274 0-.475.252-.475.62Zm-148.9 18.351h.358c.246-.012.484-.086.693-.216.226-.152.385-.387.441-.654l-.009-.005c-.157.164-.39.255-.709.255a1.064 1.064 0 0 1-.786-.311 1.051 1.051 0 0 1-.304-.789c0-.686.554-1.265 1.323-1.265.904 0 1.331.694 1.331 1.512 0 .74-.233 1.269-.618 1.625-.333.304-.799.463-1.347.485h-.373v-.637m168.574-17.746c0 .804.194 1.188.505 1.188.323 0 .495-.399.495-1.198 0-.779-.167-1.193-.5-1.193-.296 0-.5.38-.5 1.203Zm-166.753 17.724c0 1.08-.436 1.835-1.331 1.835-.909 0-1.311-.818-1.313-1.813 0-1.022.426-1.823 1.335-1.823.934 0 1.309.84 1.309 1.801m-37.453-22.338.464.823h-.564l-.659-.823h.759Zm3.951 5.937c-.005-.725.313-1.009.749-1.009.265 0 .451.085.758.25.24.137.384.22.519.22.125 0 .206-.118.221-.436h.512c.027.764-.309 1.014-.718 1.014-.262 0-.471-.09-.76-.257-.242-.137-.382-.225-.512-.225-.14 0-.235.09-.257.443h-.512Zm222.066 1.737v.395h-1.026v-.395h1.026Zm.214-5.721v.193h-1.963v-.193h1.963Zm17.711 6.486v-.368h2.022v.368h-2.022Zm-206.489 13.085v-.365h2.021v.365h-2.021Zm207.69-21.529v.853h.821v.362h-.821v.873h-.382v-.873h-.819v-.362h.819v-.853h.382Zm-74.953-.407-.417.503v.009l.625-.125v.397l-.628-.108v.008l.42.485-.344.203-.227-.605h-.008l-.223.605-.335-.203.419-.485-.008-.01-.612.11v-.397l.61.125v-.009l-.409-.498.345-.203.218.61h.007l.226-.61.341.198m-20.427.174-.233.272.184.38.284-.387-.225-.265h-.01Zm-112.009 23.561c-.162-.162-.38-.414-.598-.657l-.211.373c0 .228.172.419.449.419l.36-.135Zm.449.522-.172-.186a1.18 1.18 0 0 1-.728.225c-.637 0-.921-.372-.921-.745 0-.353.201-.605.502-.762v-.01l-.201-.514c0-.339.262-.701.797-.701.409 0 .713.24.713.62 0 .264-.152.497-.517.679l-.005.014.443.498c.114-.2.19-.418.226-.645h.529a1.984 1.984 0 0 1-.436 1.005l.465.522h-.695m92.02-22.458-.573-1.397h-.01l-.576 1.397h-.421l.818-1.853h.368l.821 1.853h-.427Zm-19.571-.057c-.008.27.085.464.257.464.167 0 .247-.177.247-.464 0-.257-.066-.453-.252-.453-.176 0-.252.206-.252.453Zm-71.499 22.488c0 .529-.335.809-.708.809-.382 0-.686-.287-.686-.765 0-.453.277-.799.711-.799.433 0 .683.321.683.755Zm-2.516.818 1.468-2.631h.318l-1.463 2.631h-.323Zm-.277-1.847c-.003.272.088.458.262.458.172 0 .252-.164.252-.461 0-.257-.071-.463-.257-.463-.181 0-.257.208-.257.466Zm.958-.027c0 .531-.338.816-.706.816-.389 0-.693-.292-.693-.777 0-.453.274-.801.715-.801.436 0 .684.323.684.762Zm53.027-20.339v-.372a1.704 1.704 0 0 1-.664-.167l.115-.46c.2.108.422.167.649.171.231 0 .385-.091.385-.243s-.125-.247-.421-.343c-.419-.139-.706-.338-.706-.715 0-.353.243-.623.662-.701v-.372h.387v.34c.197.006.392.052.571.135l-.115.443a1.203 1.203 0 0 0-.566-.139c-.258 0-.336.115-.336.223 0 .13.137.215.47.335.471.162.652.385.652.736 0 .352-.24.649-.693.725v.404h-.39m-19.797-1.404.061-.443h-.357l-.062.443h.358Zm-34.098 22.806.101-.701h-.321v-.362h.377l.069-.444h-.331v-.365h.382l.098-.676h.351l-.096.676h.356l.1-.676h.348l-.096.676h.314v.365h-.377l-.054.444h.321v.362h-.382l-.101.701h-.35l.098-.701h-.356l-.1.701h-.351Zm14.036-23.1-.12-.017c-.257 0-.463.26-.463.564l.199.24c.139 0 .299-.184.331-.412l.053-.375Zm-13.685 24.722a1.581 1.581 0 0 1-.723.143 1.21 1.21 0 0 1-.878-.355 1.202 1.202 0 0 1-.345-.883c0-.799.586-1.495 1.471-1.495.688 0 1.186.476 1.186 1.137 0 .574-.321.934-.745.934l-.339-.299h-.002l-.515.299c-.252 0-.441-.191-.441-.51a.9.9 0 0 1 .922-.919l.473.101-.123.723c-.039.235-.01.338.098.343.169.007.38-.206.38-.662 0-.514-.328-.904-.936-.904-.605 0-1.122.465-1.122 1.218 0 .661.411 1.024.994 1.024l.576-.12.069.225Zm-6.849-24.237-.083-1.776h.617l-.086 1.776h-.448Zm7.069 25.149-.35-.355.358-.358.348.358-.348.355h-.008Zm153.451-26.989a3.04 3.04 0 0 0-.395 1.59c0 .689.174 1.211.395 1.578h-.419a2.782 2.782 0 0 1-.446-1.578c.005-.764.24-1.284.446-1.59h.419Zm19.537 2.742c.22-.363.404-.89.404-1.583 0-.701-.184-1.218-.404-1.585h.419c.208.304.448.818.448 1.585a2.807 2.807 0 0 1-.448 1.583h-.419Zm61.969-12.132.117.012.314-.257-.284-.233-.147.01v.468ZM147.514 321.53l.485-.034c.223 0 .385.044.486.127l.169.37-.145.375-.515.167-.125-.01v.568h-.355v-1.563m236.632-35.605c0 .312.14.532.383.532.24 0 .379-.233.379-.541 0-.285-.132-.532-.379-.532-.246 0-.383.233-.383.541Zm-235.49 35.585c0 .52-.314.838-.779.838-.466 0-.745-.357-.745-.813 0-.476.306-.828.774-.828.485 0 .75.365.75.803Zm237.108-34.796-.38-1.583h.384l.123.65.093.556h.007l.103-.561.133-.645h.38l.129.665.084.531h.002l.096-.551.127-.645h.368l-.412 1.583h-.387l-.132-.678-.079-.493h-.002l-.093.493-.152.678h-.392m2.778-.669h-.588v.375h.655v.294h-1.013v-1.583h.978v.292h-.62v.328h.588v.294m.667-.21h.14l.286-.228-.267-.223-.159.012v.439Zm-240.911 34.992.481-.035c.237 0 .399.037.512.128l.144.328-.279.39v.01l.213.294.13.448h-.368l-.11-.37-.262-.252h-.103v.622h-.358v-1.563m-12.203-36.102h1.764v.536h-1.11v.659h1.037v.537h-1.037v1.162h-.654v-2.894m2.982.683h-.005l-.534.25-.108-.49.745-.34h.535v2.791h-.633v-2.211m17.509-.683h1.764v.536h-1.105v.659h1.036v.537h-1.036v1.162h-.659v-2.894m2.156 2.894v-.395l.36-.321c.61-.549.909-.862.914-1.193 0-.226-.135-.405-.456-.405a1.049 1.049 0 0 0-.597.228l-.187-.465c.209-.157.539-.287.912-.287.637 0 .978.37.978.87 0 .475-.331.85-.738 1.208l-.262.213v.008h1.058v.539h-1.982m17.984-2.894h1.761v.536h-1.11v.659h1.042v.537h-1.042v1.162h-.651v-2.894m2.266 2.254c.2.107.421.165.647.169.338 0 .51-.159.51-.367 0-.28-.272-.405-.564-.405h-.264v-.465h.257c.223 0 .492-.091.492-.324 0-.166-.129-.291-.409-.291a1.266 1.266 0 0 0-.581.166l-.132-.47c.265-.146.563-.218.865-.211.586 0 .921.311.921.696 0 .294-.166.532-.509.649v.01c.333.059.605.314.605.679 0 .49-.436.853-1.144.853a1.745 1.745 0 0 1-.829-.192l.135-.497m18.425-2.254h1.764v.536h-1.11v.659h1.039v.537h-1.039v1.162h-.654v-2.894m3.308 1.74v-.616l.017-.524h-.012l-.262.524-.37.608-.005.008h.632Zm-52.427 35.516v-.664h-1.237v-.424l1.056-1.703h.799v1.637h.328v.49h-.328v.664h-.618Zm69.783-37.256h1.767v.536h-1.112v.659h1.039v.537h-1.039v1.162h-.655v-2.894m4.014.637h-1.081l-.061.434.179-.01c.27 0 .544.063.738.201a.795.795 0 0 1 .34.698c0 .524-.448.983-1.198.983a1.802 1.802 0 0 1-.782-.165l.123-.485c.198.09.412.137.63.14.267 0 .556-.132.556-.429 0-.284-.228-.463-.787-.463l-.372.027.181-1.465h1.534v.534m16.808-.637h1.766v.536h-1.11v.659h1.037v.537h-1.037v1.162h-.656v-2.894m3.577 1.965c0-.255-.137-.48-.414-.48l-.385.247-.029.167c.015.296.159.561.453.561.228 0 .375-.208.375-.495Zm-93.824 33.894-.252.008c-.581.044-.841.343-.912.666h.012c.14-.137.336-.221.596-.221.465 0 .862.331.862.912a.995.995 0 0 1-.633.94.998.998 0 0 1-.393.07c-.75 0-1.113-.554-1.113-1.218 0-.53.191-.966.495-1.248a1.67 1.67 0 0 1 1.076-.411l.262-.005v.507m110.563-35.859h1.762v.536h-1.108v.659h1.039v.537h-1.039v1.162h-.654v-2.894m4.156.103v.411l-1.152 2.38h-.691l1.147-2.247v-.01h-1.274v-.534h1.97m16.491-.103h1.767v.536h-1.11v.659h1.036v.537h-1.036v1.162h-.657v-2.894m2.823.818c0 .191.167.311.39.377l.284-.347c0-.179-.096-.346-.341-.346l-.333.316ZM149.386 321.91c0-.245-.186-.392-.438-.458l-.339.414a.38.38 0 0 0 .395.389c.23 0 .382-.147.382-.345Zm-.943-.689c-.272-.139-.404-.37-.404-.612 0-.476.423-.787.982-.787.652 0 .922.377.922.718a.67.67 0 0 1-.405.613v.014c.272.103.515.336.515.689 0 .51-.427.853-1.076.853-.711 0-1.034-.4-1.034-.78 0-.333.191-.568.5-.703v-.005m152.068-36.496h1.759v.536h-1.112v.659h1.041v.537h-1.041v1.162h-.647v-2.894m2.747 1.021c0 .241.132.449.392.449l.363-.181.034-.165c.002-.301-.108-.595-.409-.595-.226 0-.38.201-.38.492Zm-155.212 36.877h.282l.553-.169.351-.517-.007-.005a.783.783 0 0 1-.567.201.834.834 0 0 1-.626-.246.847.847 0 0 1-.243-.627c0-.546.441-1.004 1.053-1.004.718 0 1.056.549 1.056 1.2 0 .586-.183 1.008-.487 1.294a1.68 1.68 0 0 1-1.069.383h-.296v-.51m172.963-37.898h1.769v.536h-1.115v.659h1.041v.537h-1.041v1.162h-.654v-2.894m2.987.683h-.008l-.534.25-.105-.49.742-.34h.537v2.791h-.632v-2.211m2.161.821c0 .64.152.944.402.944.252 0 .392-.319.392-.954 0-.62-.132-.945-.394-.945-.238 0-.4.299-.4.955Zm-176.665 36.374c0 .858-.346 1.458-1.057 1.458-.722 0-1.038-.649-1.041-1.438 0-.814.338-1.448 1.061-1.448.738 0 1.037.661 1.037 1.428m191.522-37.878h1.762v.536h-1.108v.659h1.034v.537h-1.034v1.162h-.654v-2.894m2.982.683h-.005l-.534.25-.108-.49.74-.34h.539v2.791h-.632v-2.211m2.382 0h-.012l-.53.25-.107-.49.742-.34h.534v2.791h-.627v-2.211m14.636-.683h1.767v.536h-1.112v.659h1.039v.537h-1.039v1.162h-.655v-2.894m2.982.683h-.007l-.532.25-.105-.49.74-.34h.537v2.791h-.633v-2.211m1.554 2.211v-.395l.353-.321c.615-.549.909-.862.914-1.193 0-.226-.132-.405-.453-.405a1.05 1.05 0 0 0-.598.228l-.187-.465c.209-.157.54-.287.914-.287.633 0 .981.37.981.87 0 .475-.339.85-.743 1.208l-.26.213v.008h1.054v.539h-1.975m-250.648-1.574h-.586v.375h.652v.294h-1.01v-1.583h.975v.292h-.617v.328h.586v.294m.32.299.4.101.25-.174-.265-.218c-.264-.096-.438-.243-.438-.473 0-.27.227-.473.597-.473l.407.081-.078.284-.333-.076-.228.152.296.223c.28.103.409.255.409.475 0 .267-.203.493-.637.493l-.453-.098.073-.297m2.422.326-.405.074c-.549 0-.831-.343-.831-.799 0-.539.383-.838.863-.838l.392.071-.076.279-.301-.056c-.277 0-.5.172-.5.524 0 .319.186.515.505.515l.299-.049.054.279m268.414 54.069h-.586v.377h.649v.289h-1.009v-1.583h.977v.294h-.617v.329h.586v.294m.306.666v-1.583h.421l.331.581.26.547h.002a7.437 7.437 0 0 1-.027-.667v-.461h.329v1.583h-.375l-.343-.607-.27-.559h-.012c.015.211.015.436.015.691v.475h-.331m1.931-1.279h-.424v-.304h1.218v.304h-.434v1.279h-.36v-1.279m1.926.613h-.583v.377h.649v.289h-1.01v-1.583h.978v.294h-.617v.329h.583v.294m.669-.213h.139l.287-.228-.262-.221-.164.012v.437Zm-241.756-18.604.483-.037c.232 0 .397.037.509.128l.147.333-.277.392v.007l.214.292.122.446h-.365l-.11-.365-.26-.257h-.105v.622h-.358v-1.561m.061 13.945-.23-.769-.182-.703h-.009l-.169.703-.219.769h.809Zm-.985-13.327-.262.931h-.848l1.11-3.642h1.076l1.139 3.642h-.892l-.282-.931h-1.041m19.731 14.031c.282.147.596.224.914.225.377 0 .583-.154.583-.394 0-.226-.179-.356-.615-.508-.608-.215-1.007-.549-1.007-1.075 0-.63.524-1.096 1.377-1.096.321-.009.64.053.934.182l-.184.659a1.739 1.739 0 0 0-.76-.169c-.353 0-.529.164-.529.348 0 .232.201.333.679.514.642.238.938.576.938 1.083 0 .615-.465 1.135-1.463 1.135a2.358 2.358 0 0 1-1.034-.23l.167-.674m20.326.225.284.017c.755.008 1.248-.406 1.248-1.276 0-.755-.444-1.157-1.162-1.157l-.37.034v2.382Zm-40.878-17.224a7.172 7.172 0 0 1 1.105-.083c.699 0 1.154.135 1.5.392.377.282.617.733.617 1.375 0 .7-.257 1.178-.602 1.477-.383.316-.973.466-1.686.466-.429 0-.735-.025-.934-.054v-3.573Zm60.832 14.203h2.217v.679h-1.396v.83h1.303v.672h-1.303v1.46h-.821v-3.641m22.549 3.474c-.392.13-.801.2-1.213.206-.667 0-1.15-.166-1.483-.485a1.815 1.815 0 0 1-.514-1.33c.004-1.209.887-1.905 2.082-1.905.468 0 .834.094 1.01.179l-.172.66a1.964 1.964 0 0 0-.842-.155c-.689 0-1.213.385-1.213 1.176 0 .76.472 1.199 1.151 1.199l.402-.047v-.772h-.561v-.642h1.353v1.916m18.018-3.474v1.399h1.352v-1.399h.824v3.641h-.824v-1.522h-1.352v1.522h-.824v-3.641h.824Zm20.654 0h.823v2.306c0 1.036-.499 1.399-1.293 1.399l-.606-.084.091-.669.424.067c.341 0 .561-.157.561-.718v-2.301m18.905 0h.814v1.612h.014l.25-.402.824-1.21h1.014l-1.203 1.553 1.262 2.088h-.956l-.894-1.568-.311.382v1.186h-.814v-3.641m21.37 0h.826v2.952h1.443v.689h-2.269v-3.641Zm-198.329 7.052-.405.064c-.554 0-.833-.343-.833-.794 0-.544.385-.843.868-.843l.389.073-.076.282-.299-.059c-.284 0-.507.172-.507.522 0 .321.194.52.507.52l.302-.052.054.287m1.029-.637-.096-.333-.081-.307h-.005l-.073.307-.093.333h.348Zm34.57-20.351-.112.407h-.37l.482-1.585h.473l.495 1.585h-.392l-.122-.407h-.454Zm-33.443 20.182.12.01.309-.258-.282-.232-.147.009v.471Zm33.086-20.902.487-.035c.223 0 .38.045.488.128l.164.37-.142.377-.515.164-.125-.009v.568h-.357v-1.563m-32.062 21.38.397.093.257-.167-.271-.223c-.263-.093-.439-.24-.439-.47 0-.272.228-.478.6-.478l.409.083-.083.287-.326-.074-.235.152.294.223c.282.101.412.25.412.473 0 .267-.206.493-.64.493l-.451-.103.076-.289m1.733-1.221h.357v1.287h.633v.299h-.99v-1.586m1.418.794c0 .316.145.53.383.53.245 0 .384-.226.384-.535 0-.289-.132-.531-.384-.531-.24 0-.383.228-.383.536Zm30.06-20.968c0 .519-.319.833-.787.833-.463 0-.742-.355-.742-.808 0-.476.304-.834.772-.834.487 0 .757.365.757.809Zm-27.516 21.723-.407.064c-.546 0-.833-.343-.833-.794 0-.544.39-.843.868-.843l.389.073-.073.282-.302-.059c-.282 0-.505.172-.505.522 0 .321.192.52.505.52l.307-.052.051.287m.235-1.549h.353v.699h.005l.11-.172.36-.527h.442l-.525.677.552.909h-.419l-.39-.686-.135.169v.517h-.353v-1.586m228.975.51c.125-.382.294-.764.47-1.061l.365-.034a6.285 6.285 0 0 0-.274 1.063l-.561.032Zm.767-6.525c.12-.388.287-.765.468-1.061l.363-.035a5.712 5.712 0 0 0-.277 1.059l-.554.037Zm-203.236-14.159c.123-.387.297-.764.476-1.061l.362-.034a5.527 5.527 0 0 0-.276 1.058l-.562.037m182.579 20.179.35-.357.346.357-.351.358-.345-.358Zm-182.792-18.13c.125-.348.233-.755.284-1.115l.601-.039c-.119.39-.281.766-.485 1.119l-.4.035Zm182.767 12.465.356-.368.345.368-.35.353-.351-.353Zm-182.767-13.737.356-.36.345.36-.35.363-.351-.363Zm238.333 38.003.395.101.257-.172-.267-.225c-.267-.088-.439-.238-.439-.473 0-.265.228-.468.598-.468l.409.078-.083.287-.328-.081-.233.159.294.223c.282.106.409.248.409.476 0 .26-.198.487-.637.487l-.448-.098.073-.294m1.617-1.213v.603h.591v-.603h.358v1.583h-.358v-.666h-.591v.666h-.357v-1.583h.357Zm1.62 0v1.583h-.358v-1.583h.358Zm.314 0h.968v.29h-.606v.362h.564v.289h-.564v.642h-.362v-1.583Zm1.541.297h-.426v-.297h1.22v.297h-.434v1.286h-.36v-1.286Zm-234.145-2.602 1.737-2.5v-.019h-1.578v-.682h2.642v.473l-1.696 2.468v.022h1.725v.681h-2.83v-.443m22.639.443-.325-.659c-.143-.255-.223-.446-.326-.657h-.01a6.314 6.314 0 0 1-.292.657l-.294.659h-.943l1.058-1.843-1.017-1.801h.944l.318.662c.111.225.191.402.28.605h.014c.079-.23.152-.392.241-.605l.308-.662h.944l-1.029 1.779 1.08 1.865h-.951Zm20.285-.098a2.465 2.465 0 0 1-.931.157c-1.26 0-1.904-.789-1.904-1.831 0-1.242.884-1.93 1.985-1.93.308-.013.616.044.899.166l-.174.647a1.733 1.733 0 0 0-.693-.135c-.647 0-1.157.397-1.157 1.206 0 .733.434 1.191 1.164 1.191.252 0 .527-.052.693-.123l.118.652Zm18.956.098-1.168-3.644h.901l.446 1.542c.123.433.236.843.321 1.303h.017c.091-.441.204-.875.334-1.291l.463-1.554h.877l-1.23 3.644h-.961m19.471-.583.321.012c.373 0 .701-.149.701-.534 0-.358-.328-.51-.74-.51h-.282v1.032Zm-90.631-35.962h.27c.441 0 .664-.179.664-.451 0-.275-.206-.422-.583-.422l-.351.025v.848Zm-.816-1.4a7.505 7.505 0 0 1 1.061-.073c.505 0 .814.051 1.086.206a.778.778 0 0 1 .431.718c0 .321-.189.617-.598.772v.012c.417.108.723.426.723.894a.97.97 0 0 1-.38.779c-.262.209-.708.331-1.431.331-.407 0-.708-.029-.892-.056v-3.583m110.862 37.945v-3.644h.963l.76 1.333c.219.406.417.824.593 1.25h.01a14.986 14.986 0 0 1-.064-1.527v-1.056h.755v3.644h-.865l-.78-1.404c-.232-.419-.442-.85-.629-1.291h-.022c.024.49.036.999.036 1.595v1.1h-.757m23.85-1.394a44.373 44.373 0 0 1-.032-1.497h-.007c-.123.473-.261.942-.414 1.406l-.441 1.424h-.645l-.389-1.402a20.68 20.68 0 0 1-.329-1.428h-.012a78.93 78.93 0 0 1-.064 1.507l-.068 1.384h-.76l.233-3.644h1.098l.352 1.216c.123.419.228.875.309 1.303h.022c.098-.424.223-.904.351-1.313l.382-1.206h1.078l.196 3.644h-.806l-.054-1.394m-170.451 4.469.394.101.255-.172-.264-.225c-.267-.088-.439-.238-.439-.473 0-.265.23-.468.6-.468l.405.078-.081.287-.329-.081-.232.159.291.223c.287.106.412.248.412.476 0 .26-.203.487-.635.487l-.453-.098.076-.294m1.617-1.213v.603h.591v-.603h.357v1.583h-.357v-.666h-.591v.666h-.358v-1.583h.358Zm1.62 0v1.583h-.358v-1.583h.358Zm.314 0h.97v.29h-.613v.362h.569v.289h-.569v.642h-.357v-1.583Zm1.541.297h-.426v-.297h1.22v.297h-.431v1.286h-.363v-1.286Zm-1.115 22.348-.402.068c-.549 0-.833-.343-.833-.794 0-.541.39-.845.867-.845l.39.074-.074.281-.301-.056c-.284 0-.505.174-.505.522 0 .321.184.522.508.522l.301-.054.049.282m.47-.75c0 .311.147.532.39.532.238 0 .38-.231.38-.539 0-.285-.132-.527-.38-.527-.247 0-.39.228-.39.534Zm32.444-61.716c0 .519-.314.833-.782.833-.47 0-.747-.355-.747-.811 0-.476.304-.828.774-.828.488 0 .755.362.755.806Zm-31.062 62.51v-1.586h.419l.331.581.258.542h.004a8.662 8.662 0 0 1-.022-.664v-.459h.326v1.586h-.38l-.34-.613-.272-.558h-.012c.014.229.021.459.019.688v.483h-.331m1.929-1.287h-.426v-.299h1.22v.299h-.434v1.287h-.36v-1.287Zm1.34.4h.14l.289-.226-.267-.215-.162.01v.431Zm27.435-62.305.478-.031c.24 0 .402.036.515.125l.149.333-.282.389v.008l.211.291.127.454h-.365l-.107-.375-.265-.248h-.103v.623h-.358v-1.569Zm-26.102 62.398c0 .311.147.532.39.532.24 0 .382-.231.382-.539 0-.285-.137-.527-.382-.527-.248 0-.39.228-.39.534Zm27.254-62.412c0 .519-.314.833-.782.833s-.747-.355-.747-.811c0-.475.309-.828.772-.828.49 0 .757.362.757.806Zm-25.869 61.62h.358v1.285h.627v.301h-.985v-1.586Zm21 .91-.096-.336-.083-.306h-.005l-.073.306-.096.336h.353Zm4.467-62.266-.118.412h-.365l.483-1.585h.473l.49 1.585h-.385l-.125-.412h-.453Zm-3.698 61.356h.365v1.285h.628v.301h-.993v-1.586Zm1.27.299h-.429v-.299h1.218v.299h-.434v1.287h-.355v-1.287Zm173.198 1.243-.407.068c-.546 0-.828-.343-.828-.794 0-.541.384-.845.865-.845l.389.074-.073.281-.301-.056c-.285 0-.505.174-.505.522 0 .321.186.522.505.522l.303-.054.052.282Zm.468-.75c0 .311.149.532.389.532.241 0 .38-.231.38-.539 0-.285-.135-.527-.38-.527s-.389.228-.389.534Zm-170.089-62.162c0 .519-.313.833-.781.833s-.743-.355-.743-.811c0-.476.304-.828.772-.828.483 0 .752.362.752.806Zm171.471 62.956v-1.586h.416l.334.581.259.542h.005a5.843 5.843 0 0 1-.029-.664v-.459h.328v1.586h-.377l-.336-.613-.277-.558h-.009c.012.229.018.459.019.688v.483h-.333Zm1.928-1.287h-.424v-.299h1.218v.299h-.433v1.287h-.361v-1.287m1.338.4h.142l.285-.226-.26-.215-.167.01v.431Zm-175.09-62.75.476-.032c.235 0 .399.036.514.125l.147.333-.279.389v.008l.211.291.127.454h-.365l-.113-.375-.257-.248h-.108v.623h-.353v-1.568Zm176.426 62.843c0 .311.147.532.387.532.242 0 .38-.231.38-.539 0-.285-.133-.527-.38-.527-.245 0-.387.228-.387.534Zm-175.276-62.858c0 .519-.316.833-.782.833-.468 0-.742-.355-.742-.811 0-.475.303-.828.771-.828.486 0 .753.362.753.806Zm176.658 62.066h.358v1.285h.632v.301h-.99v-1.586Zm-27.151.91-.095-.336-.079-.306h-.005l-.073.306-.096.336h.348ZM149.06 315.972l-.11.412h-.367l.477-1.585h.473l.493 1.585h-.385l-.122-.412h-.459m150.686 61.802h.361v1.285h.627v.301h-.988v-1.586Zm1.265.299h-.429v-.299h1.218v.299h-.429v1.287h-.36v-1.287Zm17.123-20.588.353-.37c.206 0 .346.147.351.37l-.361.36-.343-.36m1.902-6.8-1.892.858v-.41l1.461-.627v-.007l-1.461-.625v-.414l1.892.865v.36m-22.078 7.582c.127-.348.23-.753.286-1.113l.608-.041a5.39 5.39 0 0 1-.492 1.119l-.402.035Zm.208-7.932 1.887-.875v.414l-1.429.625v.007l1.429.627v.41l-1.887-.87v-.338m40.153 7.618.838-2.845h.397l-.839 2.845h-.396Zm.362-6.952.348-.355.353.355-.353.36-.348-.36Zm-189.518-35.573-.007-.103.235-.61.223-.411-.287-.24-.384.122-.135-.429c.147-.085.377-.159.654-.159.522 0 .76.284.76.608 0 .299-.191.495-.338.659l-.199.49v.073h-.522m217.436 54.375v-1.887h.818l-1.08-1.881-1.083 1.881h.823v1.887h.522Zm-.498 6.178v1.889h-.821l1.084 1.88 1.083-1.88h-.826v-1.889h-.52m18.053 2.144h1.894v.821l1.879-1.081-1.879-1.085v.823h-1.894v.522m-36.955-.522h-1.892v-.823l-1.879 1.085 1.879 1.081v-.819h1.892v-.524" fill="#fff"/><path d="M253.531 30.048a2.623 2.623 0 1 1-5.246 0 2.62 2.62 0 0 1 2.627-2.617 2.623 2.623 0 0 1 2.619 2.617" fill="#3C3739"/><path d="M253.23 30.048a2.318 2.318 0 0 1-2.318 2.323 2.32 2.32 0 1 1 2.318-2.323" fill="#201C1D"/><path d="M250.78 29.139a.642.642 0 0 1-1.282 0c0-.353.289-.642.64-.642a.644.644 0 0 1 .642.642m.326.965-.326.324-.329-.324.329-.326.326.326Z" fill="#B5B6B7"/></g><defs><clipPath id="a"><path fill="#fff" d="M0 0h512v512H0z"/></clipPath></defs></svg>