<svg width="39" height="41" viewBox="0 0 39 41" fill="none" xmlns="http://www.w3.org/2000/svg">
<path d="M21.4777 32.6094L24.9175 32.0687L22.0069 28.2833H19.0962L16.7148 28.0129L14.598 27.4721L12.4811 26.1202L10.8935 24.7682L9.57045 22.8755L8.77665 20.7124L8.51203 18.5494L8.77665 16.1159L9.83507 13.6824L10.8935 12.0601L12.4811 10.7082L14.598 9.62661L16.7148 9.08583H19.0962L21.2131 9.35622L23.3299 10.1674L25.4467 11.7897L27.0344 13.6824L27.5636 15.3047L27.8282 16.6566V18.0086V19.6309V22.3348L31.5327 26.1202L32.0619 24.4979L32.3265 22.8755L34.4433 22.6051L36.8248 22.3348V16.6566L33.1203 16.1159L31.2681 12.0601L33.1203 7.7339L29.945 5.03004L26.5052 6.65236L22.0069 5.03004L21.7423 2.59656V0.703858L15.921 0.163086L15.1272 4.21888L10.8935 6.11158L7.71823 3.40772L3.74915 6.65236L5.60139 10.7082L4.54297 14.7639L0.309292 15.3047L0.0446777 20.7124L4.54297 21.5236L5.60139 26.3906L2.95533 28.824L5.07217 31.2575L7.18902 33.1502L10.8935 30.4464L14.598 32.6094L15.1272 37.206H20.9485L21.4777 32.6094Z" fill="#BB3F36"/>
<path d="M16.9794 19.9013L14.8625 18.279L14.0687 17.7382L14.8625 21.2532L15.921 22.6051L16.7148 23.1459L17.5086 23.6867L19.0962 23.9571L20.6838 23.6867L31.268 36.6652L32.3265 38.0172C32.5892 38.3873 32.8227 38.6247 33.3849 39.0987C33.5899 39.306 33.7491 39.4239 34.1787 39.6395C34.3854 39.7582 34.8124 39.8752 35.2371 39.9099C35.6618 39.9446 35.7663 39.9099 35.7663 39.9099H36.0309C36.2955 39.9099 36.8135 39.7079 37.0893 39.6395C37.3669 39.557 37.6186 39.3691 37.6186 39.3691C37.6186 39.3691 37.9554 39.003 38.1478 38.5579C38.3401 38.1129 38.3542 38.1262 38.4124 37.7468C38.3953 37.433 38.34 37.2559 38.1478 36.9356L36.2955 34.7725L25.1821 22.6051L23.8591 20.9828V18.8197V17.4678L23.5945 16.3863L22.8007 15.3047L21.2131 14.4936H17.244L19.89 16.6567C20.0582 16.851 20.1367 16.8663 20.4192 17.7382C20.3938 18.1231 20.3096 18.2777 20.1546 18.5494L19.4931 19.3605L18.8316 20.1717C18.201 20.4399 17.2911 20.0845 16.9794 19.9013Z" fill="black" stroke="white" stroke-width="0.5"/>
</svg>
