<svg width="1024" height="1024" fill="none" xmlns="http://www.w3.org/2000/svg"><path d="M160.5 55c0-23.196 18.804-42 42-42h618c23.196 0 42 18.804 42 42v910.5c0 23.196-18.804 42-42 42h-618c-23.196 0-42-18.804-42-42V55Z" fill="#A7A7A7"/><path d="M166.168 50.834c0-17.673 14.327-32 32-32h626.833c17.673 0 32 14.327 32 32v919c0 17.673-14.327 31.996-32 31.996H198.168c-17.673 0-32-14.323-32-31.996v-919Z" fill="#F5F5F5"/><path d="M194.833 105.5c0-7.732 6.268-14 14-14H815.5c7.732 0 14 6.268 14 14v810.167c0 7.732-6.268 14-14 14H208.833c-7.732 0-14-6.268-14-14V105.5Z" fill="#B2B2B2"/><path d="M201 148c0-27.614 22.386-50 50-50h569a2 2 0 0 1 2 2v821a2 2 0 0 1-2 2H251c-27.614 0-50-22.386-50-50V148Z" fill="#57A8C9"/><path d="M511.417 65.167a6.417 6.417 0 1 0 0-12.834 6.417 6.417 0 0 0 0 12.834Z" fill="#7D8085"/><path d="M511.416 61.333a2.75 2.75 0 1 0 0-5.5 2.75 2.75 0 0 0 0 5.5Z" fill="#48596B"/><path d="M512.995 989.887c13.488 0 24.422-10.934 24.422-24.422 0-13.488-10.934-24.422-24.422-24.422-13.488 0-24.422 10.934-24.422 24.422 0 13.488 10.934 24.422 24.422 24.422Z" fill="#EAEAEA"/><path d="M537.417 966.583c-5.779 1.679-35.235 5.406-48.844 0 0-13.487 10.934-24.422 24.422-24.422 13.488 0 24.422 10.935 24.422 24.422Z" fill="#D8D8D8"/><path d="M520.579 971.545a1.956 1.956 0 0 1-1.958 1.957h-11.253a1.96 1.96 0 0 1-1.957-1.957v-11.58c0-1.08.877-1.958 1.957-1.958h11.253a1.958 1.958 0 0 1 1.958 1.958v11.58Z" stroke="#CCC" stroke-width="3" stroke-miterlimit="10"/><path d="M278.123 923h-54.212C211.289 923 201 896.19 201 863.27V157.74C201 124.819 211.289 98 223.911 98H567L278.123 923Z" fill="#65B2CE"/></svg>