<svg width="1024" height="1024" fill="none" xmlns="http://www.w3.org/2000/svg"><path d="M294.351 262.666a3.67 3.67 0 0 1-3.667 3.667 3.664 3.664 0 0 1-3.667-3.667v-57.999a3.666 3.666 0 0 1 6.26-2.593 3.67 3.67 0 0 1 1.074 2.593v57.999Z" fill="#B3B3B3"/><path d="M786.532 262.666a3.667 3.667 0 0 1-7.333 0v-57.999a3.668 3.668 0 0 1 7.333 0v57.999Z" fill="#696971"/><path d="M293.851 129.334a3.498 3.498 0 0 0-3.5-3.5 3.5 3.5 0 0 0-3.5 3.5v30a3.5 3.5 0 1 0 7 0v-30Zm.5 213.666a3.67 3.67 0 0 1-3.667 3.667 3.664 3.664 0 0 1-3.667-3.667v-57.999a3.666 3.666 0 0 1 6.26-2.593 3.67 3.67 0 0 1 1.074 2.593V343Z" fill="#B3B3B3"/><path d="M784.197 948.334c0 37.556-30.444 67.996-68 67.996H357.532c-37.555 0-68-30.44-68-67.996V75.667c0-37.555 30.445-68 68-68h358.665c37.556 0 68 30.445 68 68v872.667Z" fill="#D1D1D1"/><path d="M289.532 101.001h494.665V111H289.532v-9.999Zm0 826h494.665V937H289.532v-9.999Z" fill="#939393"/><path d="M777.865 73.667c0-33.137-26.863-60-60-60h-362c-33.137 0-60 26.863-60 60v876c0 33.137 26.863 60.003 60 60.003h362c33.137 0 60-26.866 60-60.003v-876Z" fill="#fff" stroke="#A5A5A5" stroke-width="3" stroke-miterlimit="10"/><path d="M323.65 123H756v777H347.258c-16.669 0-30.142-13.588-29.999-30.257L323.65 123Z" fill="#57A8C9"/><path d="M536.865 45.417a5 5 0 1 0 0-10 5 5 0 0 0 0 10Z" fill="#484848"/><path d="M468.018 75.917a7.5 7.5 0 1 0 0-15 7.5 7.5 0 0 0 0 15Z" fill="#4E555B"/><path d="M571.115 68.667a4.25 4.25 0 0 1-4.25 4.25h-60a4.25 4.25 0 0 1 0-8.5h60a4.25 4.25 0 0 1 4.25 4.25Z" fill="#464646"/><path d="M468.115 72.916a4.598 4.598 0 1 0-.001-9.195 4.598 4.598 0 0 0 .001 9.195Z" fill="#29304D"/><path d="M536.865 987.167c17.397 0 31.5-14.327 31.5-32 0-17.673-14.103-32-31.5-32s-31.5 14.327-31.5 32c0 17.673 14.103 32 31.5 32Z" stroke="#AAA" stroke-width="4" stroke-miterlimit="10"/><path d="M351.294 900H323c-5.449 0-7-29.5-5-56.255V179.264c0-31.005-1.5-58.764 2.5-56.264H476L351.294 900Z" fill="#65B2CE"/></svg>