<svg width="154" height="74" fill="none" xmlns="http://www.w3.org/2000/svg"><path d="m104.123 40.974-4.923 1.02-.152 9.696-.124 4.996.33 1.589.294 1.044c.238.27.377.424.997.897.59.389.922.578 1.515.79.946.199 1.525.273 2.755.258l2.646-.272 1.555-.322.981-.48 1.186-.798.923-.892.816-1.273.712-1.657c.333-1.1.456-1.672.542-2.597l-.052-9.378-.25-3.814-2.332.483.028 11.868-.283 2.544c-.141.486-.426.967-.967 1.857-.118.158-.307.314-.926.745l-1.814.376-1.609.057c-.598-.16-.749-.238-.888-.368l-.737-.952c-.392-1.2-.475-1.744-.549-2.648l.326-12.77Z" fill="#000" stroke="#000"/><path d="M113.045 34.39h-11.908v-.81h11.643l4.498-5.679 6.351 11.897 9.526-24.064 3.969 37.854h.264l7.938-21.09 1.588 4.326H153v.811h-6.615l-1.059-2.974-8.467 22.442-4.234-38.124-8.996 23.253-6.351-12.979-4.233 5.138Z" fill="#000" stroke="#000" stroke-width=".1"/><path d="M92.435 21.378 99.569 21l.043.81.043.81-2.378.126-2.114.112c-.009-.093-.117-.03-.514.298.02.014-.002.084-.236.554l-.235.555c-.174.534-.218.886-.178 1.633l.028.54c.043.148.112.199.279.257l4.228-.225.043.81.043.81-2.643.14-1.585.085c-.174.135-.281.25-.5.568-.19.644-.216 1.001-.178 1.634.032.449.076.72.336 1.336.095.157.181.257.557.512l3.435-.183.043.81.043.81-6.87.365-.822-.498-.557-.512-.307-.796-.072-1.35.607-3.552 1.092-4.39.47-1.108.25-.284.515-.299ZM19.826 29.198l3.846-21.934 4.224-.28-1.153 6.58-1.418 6.597 3.96-.263.805-3.847 4.225-.281-2.308 13.16-2.112.14-2.112.141.577-3.29.576-3.29-3.432.228-1.19 6.04-4.488.3ZM77.892 33.225l-2.643.125 2.397-10.94.213-1.093.477-1.106.768-.577 1.057-.05.528-.025.542.245.554.515 2.093 5.044.793-.038.452-1.645.452-1.646.226-.822.226-.823 1.057-.05 1.057-.05-.64 3.278-.652 3.009-.426 2.185-.427 2.186-.439 1.916-.503.565-1.044.32-.806-.233L82.65 33l-.593-1.325-.605-1.596-.605-1.595-.303-.798-.592-1.325-.29-.528-.793.038-.4 2.725-.577 4.63Z" fill="#000" stroke="#000"/><path d="m57.478 38.446 3.44-.54-2.911-3.786h-2.91l-2.382-.27-2.117-.541-2.117-1.352-1.588-1.352-1.323-1.893-.793-2.163-.265-2.163.265-2.433 1.058-2.434 1.058-1.622 1.588-1.352 2.117-1.082 2.117-.54h2.381l2.117.27 2.117.811 2.117 1.623 1.587 1.892.53 1.623.264 1.352V28.172l3.705 3.785.529-1.622.264-1.623 2.117-.27 2.382-.27v-5.678l-3.705-.541-1.852-4.056 1.852-4.326-3.175-2.704-3.44 1.622-4.498-1.622-.265-2.434V6.541L51.921 6l-.794 4.056-4.234 1.893-3.175-2.704-3.969 3.244 1.852 4.056-1.058 4.056-4.234.54-.264 5.408 4.498.811 1.058 4.867-2.646 2.434 2.117 2.433 2.117 1.893 3.704-2.704 3.705 2.163.53 4.597h5.82l.53-4.597Z" fill="#BB3F36"/><path d="m52.98 25.738-2.118-1.622-.793-.54.793 3.514 1.059 1.352.794.54.793.542 1.588.27 1.588-.27 10.584 12.978 1.058 1.352c.263.37.497.608 1.059 1.082.205.207.364.325.794.54.206.12.633.236 1.058.27.425.035.53 0 .53 0h.264c.264 0 .782-.201 1.058-.27.278-.082.53-.27.53-.27s.336-.366.529-.811c.192-.445.206-.432.264-.811-.017-.314-.072-.491-.264-.812l-1.853-2.163-11.113-12.167-1.323-1.622V23.305l-.265-1.082-.793-1.081-1.588-.811h-3.97l2.647 2.163c.168.194.247.21.53 1.081-.026.385-.11.54-.266.811l-.661.811-.662.812c-.63.268-1.54-.088-1.852-.27ZM2.856 29.057 2.815 7.24l8.607-.016c1.655-.003 3.066.31 4.232.94 1.166.623 2.055 1.491 2.668 2.605.62 1.107.931 2.385.934 3.833.003 1.45-.307 2.728-.93 3.838-.623 1.109-1.527 1.973-2.712 2.593-1.178.62-2.605.932-4.28.935l-5.487.01-.007-3.696 4.74-.009c.888-.002 1.62-.156 2.194-.462.582-.314 1.015-.744 1.298-1.292.29-.554.434-1.19.433-1.907-.002-.725-.148-1.357-.44-1.896a2.917 2.917 0 0 0-1.303-1.265c-.583-.304-1.322-.456-2.216-.454l-3.111.006.034 18.047-4.613.008ZM117.295 67.469l-.493-18.903 7.458-.194c1.433-.038 2.662.204 3.685.725 1.024.516 1.812 1.25 2.367 2.201.56.947.857 2.047.889 3.302.033 1.256-.209 2.37-.725 3.344-.516.974-1.281 1.742-2.295 2.304-1.007.563-2.237.863-3.689.9l-4.754.124-.083-3.202 4.107-.108c.769-.02 1.399-.168 1.891-.446a2.636 2.636 0 0 0 1.097-1.146c.239-.487.351-1.04.335-1.662-.016-.628-.157-1.172-.421-1.633a2.533 2.533 0 0 0-1.155-1.07c-.512-.25-1.155-.366-1.93-.346l-2.695.07.408 15.636-3.997.104Z" fill="#000"/></svg>